<mxfile host="app.diagrams.net" modified="2023-10-11T08:16:06.476Z" agent="Mozilla/5.0 (X11; Linux x86_64) AppleWebKit/537.36 (KHTML, like Gecko) Chrome/117.0.0.0 Safari/537.36" etag="evWCTdqyIloiUQfCFmHR" version="22.0.4" type="device">
  <diagram name="Pàgina-1" id="LotDB5goZWibAtrZcXVA">
    <mxGraphModel dx="954" dy="618" grid="1" gridSize="10" guides="1" tooltips="1" connect="1" arrows="1" fold="1" page="1" pageScale="1" pageWidth="827" pageHeight="1169" math="0" shadow="0">
      <root>
        <mxCell id="0" />
        <mxCell id="1" parent="0" />
        <mxCell id="KG0StfkNir3XoQohIIo--4" style="edgeStyle=orthogonalEdgeStyle;rounded=0;orthogonalLoop=1;jettySize=auto;html=1;endArrow=ERzeroToMany;endFill=0;endSize=12;exitX=0.5;exitY=0;exitDx=0;exitDy=0;entryX=1;entryY=0.5;entryDx=0;entryDy=0;" parent="1" source="2hwhCJvz4wZyFLHFZ6e8-4" target="KG0StfkNir3XoQohIIo--17" edge="1">
          <mxGeometry relative="1" as="geometry">
            <mxPoint x="300" y="300" as="sourcePoint" />
          </mxGeometry>
        </mxCell>
        <mxCell id="KG0StfkNir3XoQohIIo--7" value="DNI" style="ellipse;whiteSpace=wrap;html=1;align=center;fontStyle=4;" parent="1" vertex="1">
          <mxGeometry x="40" y="230" width="100" height="40" as="geometry" />
        </mxCell>
        <mxCell id="KG0StfkNir3XoQohIIo--8" style="rounded=0;orthogonalLoop=1;jettySize=auto;html=1;endArrow=none;endFill=0;endSize=12;" parent="1" source="KG0StfkNir3XoQohIIo--7" target="KG0StfkNir3XoQohIIo--17" edge="1">
          <mxGeometry relative="1" as="geometry">
            <mxPoint x="290" y="180" as="sourcePoint" />
            <mxPoint x="230" y="180" as="targetPoint" />
          </mxGeometry>
        </mxCell>
        <mxCell id="KG0StfkNir3XoQohIIo--17" value="EMPLEAT" style="whiteSpace=wrap;html=1;align=center;fontStyle=1;fontSize=16;strokeWidth=2;" parent="1" vertex="1">
          <mxGeometry x="120" y="280" width="120" height="40" as="geometry" />
        </mxCell>
        <mxCell id="2hwhCJvz4wZyFLHFZ6e8-1" value="Nom" style="ellipse;whiteSpace=wrap;html=1;align=center;fontStyle=0;" parent="1" vertex="1">
          <mxGeometry x="130" y="190" width="100" height="40" as="geometry" />
        </mxCell>
        <mxCell id="2hwhCJvz4wZyFLHFZ6e8-2" style="rounded=0;orthogonalLoop=1;jettySize=auto;html=1;endArrow=none;endFill=0;endSize=12;" parent="1" source="2hwhCJvz4wZyFLHFZ6e8-1" target="KG0StfkNir3XoQohIIo--17" edge="1">
          <mxGeometry relative="1" as="geometry">
            <mxPoint x="136" y="249" as="sourcePoint" />
            <mxPoint x="173" y="290" as="targetPoint" />
          </mxGeometry>
        </mxCell>
        <mxCell id="2hwhCJvz4wZyFLHFZ6e8-4" value="és superior" style="rhombus;whiteSpace=wrap;html=1;" parent="1" vertex="1">
          <mxGeometry x="260" y="340" width="80" height="40" as="geometry" />
        </mxCell>
        <mxCell id="2hwhCJvz4wZyFLHFZ6e8-13" value="Cognoms" style="ellipse;whiteSpace=wrap;html=1;align=center;fontStyle=0;" parent="1" vertex="1">
          <mxGeometry x="220" y="230" width="100" height="40" as="geometry" />
        </mxCell>
        <mxCell id="2hwhCJvz4wZyFLHFZ6e8-14" style="rounded=0;orthogonalLoop=1;jettySize=auto;html=1;endArrow=none;endFill=0;endSize=12;" parent="1" source="2hwhCJvz4wZyFLHFZ6e8-13" target="KG0StfkNir3XoQohIIo--17" edge="1">
          <mxGeometry relative="1" as="geometry">
            <mxPoint x="190" y="240" as="sourcePoint" />
            <mxPoint x="190" y="290" as="targetPoint" />
          </mxGeometry>
        </mxCell>
        <mxCell id="74XPCxeHHc0xWopGy508-1" style="edgeStyle=orthogonalEdgeStyle;rounded=0;orthogonalLoop=1;jettySize=auto;html=1;endArrow=ERzeroToMany;endFill=0;endSize=12;entryX=0.5;entryY=1;entryDx=0;entryDy=0;exitX=0.5;exitY=1;exitDx=0;exitDy=0;" edge="1" parent="1" source="2hwhCJvz4wZyFLHFZ6e8-4" target="KG0StfkNir3XoQohIIo--17">
          <mxGeometry relative="1" as="geometry">
            <mxPoint x="350" y="310" as="sourcePoint" />
            <mxPoint x="250" y="310" as="targetPoint" />
          </mxGeometry>
        </mxCell>
      </root>
    </mxGraphModel>
  </diagram>
</mxfile>
